<?xml version="1.0" encoding="UTF-8"?>
<!DOCTYPE svg PUBLIC "-//W3C//DTD SVG 1.1//EN" "http://www.w3.org/Graphics/SVG/1.1/DTD/svg11.dtd">
<svg xmlns="http://www.w3.org/2000/svg" version="1.1" width="512px" height="512px" style="shape-rendering:geometricPrecision; text-rendering:geometricPrecision; image-rendering:optimizeQuality; fill-rule:evenodd; clip-rule:evenodd" xmlns:xlink="http://www.w3.org/1999/xlink">
<g><path style="opacity:0.998" fill="#338af3" d="M 232.5,-0.5 C 247.833,-0.5 263.167,-0.5 278.5,-0.5C 375.144,11.8939 445.311,61.5605 489,148.5C 493.2,157.935 496.7,167.601 499.5,177.5C 336.833,177.5 174.167,177.5 11.5,177.5C 36.2061,103.622 84.2061,50.7885 155.5,19C 180.377,8.86452 206.043,2.36452 232.5,-0.5 Z"/></g>
<g><path style="opacity:1" fill="#eceef0" d="M 134.5,55.5 C 140.537,55.1707 146.537,55.5041 152.5,56.5C 122.337,69.4914 111.504,91.8247 120,123.5C 126.488,139.321 137.988,149.487 154.5,154C 124.498,157.359 104.998,144.526 96,115.5C 92.9915,85.1562 105.825,65.1562 134.5,55.5 Z"/></g>
<g><path style="opacity:1" fill="#e6eaf0" d="M 254.5,56.5 C 256.956,58.8177 258.289,61.8177 258.5,65.5C 262.182,65.3347 265.848,65.5014 269.5,66C 267,67.8333 264.5,69.6667 262,71.5C 262.538,74.7935 262.871,78.1268 263,81.5C 260.636,79.6372 258.136,77.9705 255.5,76.5C 252.864,77.9705 250.364,79.6372 248,81.5C 248.129,78.1268 248.462,74.7935 249,71.5C 246.5,69.6667 244,67.8333 241.5,66C 245.152,65.5014 248.818,65.3347 252.5,65.5C 253.167,62.5 253.833,59.5 254.5,56.5 Z"/></g>
<g><path style="opacity:1" fill="#e6eaf0" d="M 289.5,56.5 C 291.956,58.8177 293.289,61.8177 293.5,65.5C 297.182,65.3347 300.848,65.5014 304.5,66C 302,67.8333 299.5,69.6667 297,71.5C 297.538,74.7935 297.871,78.1268 298,81.5C 295.636,79.6372 293.136,77.9705 290.5,76.5C 287.864,77.9705 285.364,79.6372 283,81.5C 283.129,78.1268 283.462,74.7935 284,71.5C 281.5,69.6667 279,67.8333 276.5,66C 280.152,65.5014 283.818,65.3347 287.5,65.5C 288.167,62.5 288.833,59.5 289.5,56.5 Z"/></g>
<g><path style="opacity:1" fill="#e7ebf0" d="M 324.5,56.5 C 326.956,58.8177 328.289,61.8177 328.5,65.5C 332.182,65.3347 335.848,65.5014 339.5,66C 337,67.8333 334.5,69.6667 332,71.5C 332.538,74.7935 332.871,78.1268 333,81.5C 330.636,79.6372 328.136,77.9705 325.5,76.5C 322.864,77.9705 320.364,79.6372 318,81.5C 318.129,78.1268 318.462,74.7935 319,71.5C 316.5,69.6667 314,67.8333 311.5,66C 315.152,65.5014 318.818,65.3347 322.5,65.5C 323.167,62.5 323.833,59.5 324.5,56.5 Z"/></g>
<g><path style="opacity:1" fill="#e0e6f0" d="M 219.5,92.5 C 221.956,94.8177 223.289,97.8177 223.5,101.5C 227.182,101.335 230.848,101.501 234.5,102C 231.328,104.006 228.662,106.506 226.5,109.5C 227.066,111.697 227.732,113.864 228.5,116C 228.167,116.5 227.833,117 227.5,117.5C 224.991,116.079 222.657,114.412 220.5,112.5C 218.343,114.412 216.009,116.079 213.5,117.5C 212.605,114.625 212.938,111.792 214.5,109C 212.15,106.317 209.483,103.984 206.5,102C 210.152,101.501 213.818,101.335 217.5,101.5C 218.167,98.5 218.833,95.5 219.5,92.5 Z"/></g>
<g><path style="opacity:1" fill="#e0e6f0" d="M 254.5,92.5 C 256.956,94.8177 258.289,97.8177 258.5,101.5C 262.182,101.335 265.848,101.501 269.5,102C 266.328,104.006 263.662,106.506 261.5,109.5C 262.066,111.697 262.732,113.864 263.5,116C 263.167,116.5 262.833,117 262.5,117.5C 260.343,115.588 258.009,113.921 255.5,112.5C 252.833,114.5 250.167,116.5 247.5,118.5C 247.167,118.167 246.833,117.833 246.5,117.5C 247.882,114.808 248.882,111.974 249.5,109C 247.15,106.317 244.483,103.984 241.5,102C 245.152,101.501 248.818,101.335 252.5,101.5C 253.167,98.5 253.833,95.5 254.5,92.5 Z"/></g>
<g><path style="opacity:1" fill="#e0e7f0" d="M 289.5,92.5 C 291.956,94.8177 293.289,97.8177 293.5,101.5C 297.182,101.335 300.848,101.501 304.5,102C 301.328,104.006 298.662,106.506 296.5,109.5C 297.208,112.458 298.208,115.291 299.5,118C 299.167,118.167 298.833,118.333 298.5,118.5C 296.116,116.115 293.45,114.115 290.5,112.5C 287.648,114.91 284.648,116.744 281.5,118C 283.378,114.709 284.212,111.209 284,107.5C 273.971,101.906 275.138,99.9062 287.5,101.5C 288.167,98.5 288.833,95.5 289.5,92.5 Z"/></g>
<g><path style="opacity:1" fill="#e1e7f0" d="M 324.5,92.5 C 326.956,94.8177 328.289,97.8177 328.5,101.5C 332.182,101.335 335.848,101.501 339.5,102C 336.517,103.984 333.85,106.317 331.5,109C 332.776,111.865 333.11,114.699 332.5,117.5C 330.343,115.588 328.009,113.921 325.5,112.5C 322.648,114.91 319.648,116.744 316.5,118C 318.378,114.709 319.212,111.209 319,107.5C 308.971,101.906 310.138,99.9062 322.5,101.5C 323.167,98.5 323.833,95.5 324.5,92.5 Z"/></g>
<g><path style="opacity:1" fill="#e7ebf0" d="M 184.5,129.5 C 186.956,131.818 188.289,134.818 188.5,138.5C 192.182,138.335 195.848,138.501 199.5,139C 196.734,140.467 194.234,142.3 192,144.5C 192.538,147.794 192.871,151.127 193,154.5C 190.589,152.422 187.922,150.755 185,149.5C 182.677,151.152 180.344,152.819 178,154.5C 178.129,151.127 178.462,147.794 179,144.5C 176.5,142.667 174,140.833 171.5,139C 175.152,138.501 178.818,138.335 182.5,138.5C 182.756,135.402 183.422,132.402 184.5,129.5 Z"/></g>
<g><path style="opacity:1" fill="#e8ebf0" d="M 219.5,129.5 C 221.956,131.818 223.289,134.818 223.5,138.5C 227.182,138.335 230.848,138.501 234.5,139C 232,140.833 229.5,142.667 227,144.5C 227.538,147.794 227.871,151.127 228,154.5C 225.656,152.819 223.323,151.152 221,149.5C 218.078,150.755 215.411,152.422 213,154.5C 213.129,151.127 213.462,147.794 214,144.5C 211.766,142.3 209.266,140.467 206.5,139C 210.152,138.501 213.818,138.335 217.5,138.5C 218.01,135.461 218.677,132.461 219.5,129.5 Z"/></g>
<g><path style="opacity:1" fill="#e8ebf0" d="M 254.5,129.5 C 256.956,131.818 258.289,134.818 258.5,138.5C 262.182,138.335 265.848,138.501 269.5,139C 267,140.833 264.5,142.667 262,144.5C 262.538,147.794 262.871,151.127 263,154.5C 260.656,152.819 258.323,151.152 256,149.5C 253.078,150.755 250.411,152.422 248,154.5C 248.129,151.127 248.462,147.794 249,144.5C 246.766,142.3 244.266,140.467 241.5,139C 245.152,138.501 248.818,138.335 252.5,138.5C 253.167,135.5 253.833,132.5 254.5,129.5 Z"/></g>
<g><path style="opacity:1" fill="#e8ebf0" d="M 289.5,128.5 C 291.766,131.262 293.099,134.595 293.5,138.5C 297.182,138.335 300.848,138.501 304.5,139C 302,140.833 299.5,142.667 297,144.5C 297.538,147.794 297.871,151.127 298,154.5C 295.656,152.819 293.323,151.152 291,149.5C 288.078,150.755 285.411,152.422 283,154.5C 283.129,151.127 283.462,147.794 284,144.5C 281.926,142.548 279.759,140.715 277.5,139C 280.817,138.502 284.15,138.335 287.5,138.5C 288.374,135.211 289.041,131.877 289.5,128.5 Z"/></g>
<g><path style="opacity:1" fill="#e7ebf0" d="M 324.5,128.5 C 325.497,128.47 326.164,128.97 326.5,130C 327.406,132.791 328.073,135.624 328.5,138.5C 332.182,138.335 335.848,138.501 339.5,139C 337,140.833 334.5,142.667 332,144.5C 332.538,147.794 332.871,151.127 333,154.5C 330.656,152.819 328.323,151.152 326,149.5C 323.078,150.755 320.411,152.422 318,154.5C 318.129,151.127 318.462,147.794 319,144.5C 316.926,142.548 314.759,140.715 312.5,139C 315.817,138.502 319.15,138.335 322.5,138.5C 323.374,135.211 324.041,131.877 324.5,128.5 Z"/></g>
<g><path style="opacity:1" fill="#cd0c34" d="M 11.5,177.5 C 174.167,177.5 336.833,177.5 499.5,177.5C 500.404,178.209 500.737,179.209 500.5,180.5C 419.042,179.169 337.375,178.503 255.5,178.5C 173.625,178.503 91.9579,179.169 10.5,180.5C 10.2627,179.209 10.596,178.209 11.5,177.5 Z"/></g>
<g><path style="opacity:1" fill="#d80027" d="M 500.5,180.5 C 502.591,185.191 503.924,190.191 504.5,195.5C 504.5,196.833 504.5,198.167 504.5,199.5C 338.5,199.5 172.5,199.5 6.5,199.5C 6.5,198.167 6.5,196.833 6.5,195.5C 7.07562,190.191 8.40896,185.191 10.5,180.5C 91.9579,179.169 173.625,178.503 255.5,178.5C 337.375,178.503 419.042,179.169 500.5,180.5 Z"/></g>
<g><path style="opacity:1" fill="#e89fac" d="M 6.5,195.5 C 6.5,196.833 6.5,198.167 6.5,199.5C 172.5,199.5 338.5,199.5 504.5,199.5C 504.5,198.167 504.5,196.833 504.5,195.5C 505.451,196.919 505.784,198.585 505.5,200.5C 338.833,200.5 172.167,200.5 5.5,200.5C 5.21552,198.585 5.54885,196.919 6.5,195.5 Z"/></g>
<g><path style="opacity:0.999" fill="#f0f0f0" d="M 5.5,200.5 C 172.167,200.5 338.833,200.5 505.5,200.5C 508.148,211.053 510.148,221.719 511.5,232.5C 511.5,247.833 511.5,263.167 511.5,278.5C 510.148,289.281 508.148,299.947 505.5,310.5C 338.833,310.5 172.167,310.5 5.5,310.5C 2.68515,299.977 0.68515,289.31 -0.5,278.5C -0.5,263.167 -0.5,247.833 -0.5,232.5C 0.68515,221.69 2.68515,211.023 5.5,200.5 Z"/></g>
<g><path style="opacity:1" fill="#e79fac" d="M 5.5,310.5 C 172.167,310.5 338.833,310.5 505.5,310.5C 505.784,312.415 505.451,314.081 504.5,315.5C 504.5,314.167 504.5,312.833 504.5,311.5C 338.5,311.5 172.5,311.5 6.5,311.5C 6.5,312.833 6.5,314.167 6.5,315.5C 5.54885,314.081 5.21552,312.415 5.5,310.5 Z"/></g>
<g><path style="opacity:1" fill="#d70127" d="M 504.5,315.5 C 503.611,321.819 501.944,327.819 499.5,333.5C 336.833,333.5 174.167,333.5 11.5,333.5C 9.05605,327.819 7.38939,321.819 6.5,315.5C 6.5,314.167 6.5,312.833 6.5,311.5C 172.5,311.5 338.5,311.5 504.5,311.5C 504.5,312.833 504.5,314.167 504.5,315.5 Z"/></g>
<g><path style="opacity:0.997" fill="#6ca544" d="M 11.5,333.5 C 174.167,333.5 336.833,333.5 499.5,333.5C 474.794,407.378 426.794,460.211 355.5,492C 330.623,502.135 304.957,508.635 278.5,511.5C 263.167,511.5 247.833,511.5 232.5,511.5C 135.856,499.106 65.6894,449.439 22,362.5C 17.8001,353.065 14.3001,343.399 11.5,333.5 Z"/></g>
</svg>
