<svg>
    <symbol xmlns="http://www.w3.org/2000/svg" viewBox="0 0 48 48" id="attachment" fill="inherit">
        <path d="M20.0549 45.9016C18.3271 45.8979 16.6391 45.404 15.2038 44.482C13.7684 43.56 12.6499 42.2513 11.9892 40.7208C11.3285 39.1903 11.1553 37.5065 11.4913 35.8818C11.8273 34.257 12.6576 32.764 13.8774 31.5909L28.7174 17.3474C29.2057 16.8792 29.7855 16.5078 30.4236 16.2545C31.0616 16.0011 31.7455 15.8707 32.4361 15.8707C33.1268 15.8707 33.8106 16.0011 34.4487 16.2545C35.0868 16.5078 35.6665 16.8792 36.1549 17.3474C36.6432 17.8155 37.0306 18.3714 37.2949 18.983C37.5592 19.5947 37.6952 20.2504 37.6952 20.9125C37.6952 21.5746 37.5592 22.2302 37.2949 22.8419C37.0306 23.4536 36.6432 24.0094 36.1549 24.4775L21.2974 38.7043C21.1405 38.8799 20.9475 39.0226 20.7303 39.1233C20.5132 39.224 20.2767 39.2806 20.0357 39.2895C19.7947 39.2984 19.5544 39.2595 19.3298 39.1751C19.1053 39.0908 18.9013 38.9629 18.7308 38.7994C18.5602 38.6359 18.4268 38.4403 18.3388 38.225C18.2508 38.0098 18.2102 37.7794 18.2195 37.5483C18.2288 37.3173 18.2878 37.0905 18.3929 36.8824C18.4979 36.6743 18.6467 36.4892 18.8299 36.3388L33.6699 22.0952C33.9566 21.7743 34.1064 21.3614 34.0894 20.9392C34.0724 20.517 33.8898 20.1164 33.5781 19.8177C33.2665 19.5189 32.8487 19.3438 32.4082 19.3275C31.9678 19.3112 31.5372 19.4548 31.2024 19.7297L16.3449 33.9565C15.3586 34.902 14.8045 36.1844 14.8045 37.5215C14.8045 38.8587 15.3586 40.1411 16.3449 41.0866C17.3312 42.0322 18.6688 42.5633 20.0636 42.5633C21.4584 42.5633 22.7961 42.0322 23.7824 41.0866L38.6224 26.8431C40.2163 25.261 41.0982 23.1421 41.0783 20.9426C41.0584 18.7432 40.1381 16.6393 38.5158 15.084C36.8935 13.5287 34.6989 12.6465 32.4047 12.6274C30.1104 12.6083 27.9002 13.4538 26.2499 14.9818L17.5874 23.3703C17.2595 23.6827 16.816 23.8581 16.3536 23.8581C15.8913 23.8581 15.4478 23.6827 15.1199 23.3703C14.9559 23.2143 14.8257 23.0288 14.7368 22.8243C14.648 22.6199 14.6022 22.4006 14.6022 22.1791C14.6022 21.9576 14.648 21.7384 14.7368 21.5339C14.8257 21.3295 14.9559 21.1439 15.1199 20.988L23.7824 12.5995C26.0798 10.397 29.1958 9.15967 32.4449 9.15967C35.694 9.15967 38.81 10.397 41.1074 12.5995C43.4048 14.802 44.6955 17.7893 44.6955 20.9041C44.6955 24.0189 43.4048 27.0061 41.1074 29.2086L26.2499 43.4522C25.4358 44.2306 24.4697 44.8477 23.4067 45.268C22.3437 45.6882 21.2047 45.9036 20.0549 45.9016Z" />

    </symbol>
    <symbol xmlns="http://www.w3.org/2000/svg" viewBox="0 0 60 60" id="bell" fill="inherit">
        <path
            d="M44.3934 33.1434V17.2684C44.3934 8.22876 37.0397 0.875 28 0.875C18.9603 0.875 11.6066 8.22876 11.6066 17.2684V33.1445C8.69232 33.9893 6.54199 36.6702 6.54199 39.9655C6.54199 43.8175 9.67628 46.9518 13.5292 46.9518H19.9097V47.0347C19.9097 51.496 23.5387 55.125 28 55.125C32.4613 55.125 36.0903 51.496 36.0903 47.0347V46.9518H42.4708C46.3237 46.9518 49.458 43.8175 49.458 39.827C49.458 36.6461 47.3077 33.9846 44.3934 33.1434ZM16.8566 17.2684C16.8566 11.1238 21.8553 6.125 28 6.125C34.1447 6.125 39.1434 11.1238 39.1434 17.2684V32.8407H16.8566V17.2684ZM30.8403 47.0347C30.8403 48.6009 29.5663 49.875 28 49.875C26.4337 49.875 25.1597 48.6009 25.1597 47.0347V46.9518H30.8403V47.0347H30.8403ZM42.4708 41.7018H13.5292C12.5713 41.7018 11.792 40.9225 11.792 39.827C11.792 38.87 12.5713 38.0907 13.5292 38.0907H42.4708C43.4287 38.0907 44.208 38.87 44.208 39.9655C44.208 40.9225 43.4287 41.7018 42.4708 41.7018Z" />

    </symbol>
    <symbol xmlns="http://www.w3.org/2000/svg" viewBox="0 0 48 48" id="calendar" fill="inherit">
        <path
            d="M42 12.25H38.5V10.5C38.5 10.0359 38.3156 9.59075 37.9874 9.26256C37.6593 8.93437 37.2141 8.75 36.75 8.75C36.2859 8.75 35.8407 8.93437 35.5126 9.26256C35.1844 9.59075 35 10.0359 35 10.5V12.25H29.75V10.5C29.75 10.0359 29.5656 9.59075 29.2374 9.26256C28.9093 8.93437 28.4641 8.75 28 8.75C27.5359 8.75 27.0908 8.93437 26.7626 9.26256C26.4344 9.59075 26.25 10.0359 26.25 10.5V12.25H21V10.5C21 10.0359 20.8156 9.59075 20.4874 9.26256C20.1592 8.93437 19.7141 8.75 19.25 8.75C18.7859 8.75 18.3408 8.93437 18.0126 9.26256C17.6844 9.59075 17.5 10.0359 17.5 10.5V12.25H14C12.6076 12.25 11.2723 12.8031 10.2877 13.7877C9.30312 14.7723 8.75 16.1076 8.75 17.5V42C8.75 43.3924 9.30312 44.7277 10.2877 45.7123C11.2723 46.6969 12.6076 47.25 14 47.25H42C43.3924 47.25 44.7277 46.6969 45.7123 45.7123C46.6969 44.7277 47.25 43.3924 47.25 42V17.5C47.25 16.1076 46.6969 14.7723 45.7123 13.7877C44.7277 12.8031 43.3924 12.25 42 12.25ZM12.25 17.5C12.25 17.0359 12.4344 16.5908 12.7626 16.2626C13.0908 15.9344 13.5359 15.75 14 15.75H17.5V17.5C17.5 17.9641 17.6844 18.4092 18.0126 18.7374C18.3408 19.0656 18.7859 19.25 19.25 19.25C19.7141 19.25 20.1592 19.0656 20.4874 18.7374C20.8156 18.4092 21 17.9641 21 17.5V15.75H26.25V17.5C26.25 17.9641 26.4344 18.4092 26.7626 18.7374C27.0908 19.0656 27.5359 19.25 28 19.25C28.4641 19.25 28.9093 19.0656 29.2374 18.7374C29.5656 18.4092 29.75 17.9641 29.75 17.5V15.75H35V17.5C35 17.9641 35.1844 18.4092 35.5126 18.7374C35.8407 19.0656 36.2859 19.25 36.75 19.25C37.2141 19.25 37.6593 19.0656 37.9874 18.7374C38.3156 18.4092 38.5 17.9641 38.5 17.5V15.75H42C42.4641 15.75 42.9092 15.9344 43.2374 16.2626C43.5656 16.5908 43.75 17.0359 43.75 17.5V22.75H12.25V17.5ZM43.75 42C43.75 42.4641 43.5656 42.9092 43.2374 43.2374C42.9092 43.5656 42.4641 43.75 42 43.75H14C13.5359 43.75 13.0908 43.5656 12.7626 43.2374C12.4344 42.9092 12.25 42.4641 12.25 42V26.25H43.75V42Z" />

    </symbol>
    <symbol xmlns="http://www.w3.org/2000/svg" viewBox="0 0 56 56" id="call" fill="inherit">
        <path
            d="M45.3598 30.3334C44.8464 30.3334 44.3097 30.17 43.7964 30.0534C42.7569 29.8243 41.7353 29.5201 40.7397 29.1434C39.6573 28.7496 38.4674 28.77 37.3991 29.2008C36.3308 29.6315 35.4596 30.4422 34.9531 31.4767L34.4398 32.5267C32.1671 31.2624 30.0787 29.6922 28.2331 27.86C26.4009 26.0144 24.8307 23.926 23.5664 21.6534L24.5464 21C25.5809 20.4935 26.3916 19.6223 26.8223 18.554C27.2531 17.4857 27.2735 16.2958 26.8797 15.2134C26.5093 14.2157 26.2053 13.1945 25.9697 12.1567C25.8531 11.6434 25.7598 11.1067 25.6897 10.57C25.4064 8.92647 24.5455 7.43808 23.2622 6.37291C21.9789 5.30774 20.3574 4.73577 18.6897 4.76002H11.6897C10.6842 4.75058 9.68833 4.95792 8.77007 5.36792C7.85181 5.77793 7.03267 6.38098 6.36842 7.13601C5.70417 7.89104 5.21039 8.78034 4.92072 9.74335C4.63104 10.7064 4.55227 11.7205 4.68975 12.7167C5.9328 22.4919 10.3971 31.5744 17.3776 38.5295C24.3581 45.4846 33.4567 49.9159 43.2364 51.1234H44.1231C45.8437 51.1259 47.505 50.4946 48.7897 49.35C49.5279 48.6898 50.1176 47.8804 50.5198 46.9754C50.9221 46.0704 51.1277 45.0904 51.1231 44.1V37.1C51.0945 35.4793 50.5043 33.9186 49.4532 32.6846C48.4021 31.4505 46.9553 30.6195 45.3598 30.3334ZM46.5264 44.3334C46.526 44.6647 46.455 44.9921 46.3182 45.2938C46.1815 45.5955 45.982 45.8647 45.7331 46.0834C45.4724 46.3085 45.1675 46.4766 44.838 46.5771C44.5085 46.6775 44.1617 46.708 43.8198 46.6667C35.0812 45.5462 26.9643 41.5485 20.7494 35.304C14.5345 29.0596 10.5754 20.9238 9.49641 12.18C9.45928 11.8382 9.49182 11.4925 9.59209 11.1636C9.69235 10.8347 9.85824 10.5296 10.0797 10.2667C10.2984 10.0178 10.5676 9.81831 10.8693 9.68152C11.171 9.54474 11.4984 9.47377 11.8297 9.47335H18.8297C19.3724 9.46128 19.9022 9.63874 20.3281 9.97518C20.754 10.3116 21.0492 10.786 21.1631 11.3167C21.2564 11.9545 21.3731 12.5845 21.5131 13.2067C21.7826 14.4367 22.1414 15.6454 22.5864 16.8234L19.3197 18.34C19.0404 18.4682 18.7892 18.6502 18.5804 18.8757C18.3717 19.1013 18.2095 19.3658 18.1033 19.6541C17.9971 19.9425 17.9488 20.249 17.9614 20.556C17.9739 20.8631 18.047 21.1646 18.1764 21.4434C21.5345 28.6364 27.3167 34.4186 34.5098 37.7767C35.0778 38.0101 35.715 38.0101 36.2831 37.7767C36.5741 37.6726 36.8415 37.5117 37.0698 37.3035C37.2981 37.0952 37.4828 36.8436 37.6131 36.5634L39.0597 33.2967C40.266 33.7281 41.4971 34.0865 42.7464 34.37C43.3686 34.51 43.9986 34.6267 44.6364 34.72C45.1671 34.8339 45.6415 35.1291 45.9779 35.555C46.3144 35.9809 46.4918 36.5107 46.4798 37.0534L46.5264 44.3334Z" />

    </symbol>
    <symbol xmlns="http://www.w3.org/2000/svg" viewBox="0 0 56 56" id="chat" fill="inherit">
        <path
            d="M46.6663 4.6665H23.333C21.4765 4.6665 19.696 5.404 18.3833 6.71676C17.0705 8.02951 16.333 9.80999 16.333 11.6665V16.3332H9.33301C7.47649 16.3332 5.69602 17.0707 4.38326 18.3834C3.07051 19.6962 2.33301 21.4767 2.33301 23.3332V37.3332C2.33225 38.7814 2.78067 40.1941 3.61647 41.3768C4.45227 42.5595 5.63431 43.4538 6.99968 43.9365V48.9998C7.00039 49.4133 7.11095 49.8191 7.32004 50.1758C7.52914 50.5325 7.82925 50.8272 8.18968 51.0298C8.53841 51.2275 8.93217 51.3319 9.33301 51.3332C9.7518 51.333 10.1628 51.2202 10.523 51.0065L21.653 44.3332H32.6663C34.5229 44.3332 36.3033 43.5957 37.6161 42.2829C38.9288 40.9702 39.6663 39.1897 39.6663 37.3332V35.8632L45.4763 39.3398C45.8365 39.5536 46.2475 39.6664 46.6663 39.6665C47.0672 39.6653 47.4609 39.5608 47.8097 39.3632C48.1701 39.1606 48.4702 38.8659 48.6793 38.5092C48.8884 38.1525 48.999 37.7466 48.9997 37.3332V32.2698C50.365 31.7871 51.5471 30.8928 52.3829 29.7101C53.2187 28.5275 53.6671 27.1147 53.6663 25.6665V11.6665C53.6663 9.80999 52.9288 8.02951 51.6161 6.71676C50.3033 5.404 48.5229 4.6665 46.6663 4.6665ZM34.9997 37.3332C34.9997 37.952 34.7538 38.5455 34.3163 38.9831C33.8787 39.4207 33.2852 39.6665 32.6663 39.6665H20.9997C20.5809 39.6666 20.1698 39.7795 19.8097 39.9932L11.6663 44.8698V41.9998C11.6663 41.381 11.4205 40.7875 10.9829 40.3499C10.5453 39.9123 9.95185 39.6665 9.33301 39.6665C8.71417 39.6665 8.12068 39.4207 7.68309 38.9831C7.24551 38.5455 6.99968 37.952 6.99968 37.3332V23.3332C6.99968 22.7143 7.24551 22.1208 7.68309 21.6833C8.12068 21.2457 8.71417 20.9998 9.33301 20.9998H16.333V25.6665C16.333 27.523 17.0705 29.3035 18.3833 30.6163C19.696 31.929 21.4765 32.6665 23.333 32.6665H34.3463L34.9997 33.0632V37.3332ZM48.9997 25.6665C48.9997 26.2853 48.7538 26.8788 48.3163 27.3164C47.8787 27.754 47.2852 27.9998 46.6663 27.9998C46.0475 27.9998 45.454 28.2457 45.0164 28.6833C44.5788 29.1208 44.333 29.7143 44.333 30.3332V33.2032L36.1897 28.3265C35.8295 28.1128 35.4185 28 34.9997 27.9998H23.333C22.7142 27.9998 22.1207 27.754 21.6831 27.3164C21.2455 26.8788 20.9997 26.2853 20.9997 25.6665V11.6665C20.9997 11.0477 21.2455 10.4542 21.6831 10.0166C22.1207 9.579 22.7142 9.33317 23.333 9.33317H46.6663C47.2852 9.33317 47.8787 9.579 48.3163 10.0166C48.7538 10.4542 48.9997 11.0477 48.9997 11.6665V25.6665Z" />

    </symbol>
    <symbol xmlns="http://www.w3.org/2000/svg" viewBox="0 0 56 56" id="clock" fill="inherit">
        <path
            d="M28.0003 4.6665C23.3854 4.6665 18.8742 6.03498 15.037 8.59888C11.1999 11.1628 8.20919 14.8069 6.44315 19.0706C4.6771 23.3342 4.21502 28.0257 5.11535 32.5519C6.01567 37.0782 8.23795 41.2358 11.5012 44.499C14.7644 47.7622 18.922 49.9845 23.4482 50.8848C27.9745 51.7851 32.666 51.3231 36.9296 49.557C41.1932 47.791 44.8374 44.8003 47.4013 40.9631C49.9652 37.126 51.3337 32.6147 51.3337 27.9998C51.3337 24.9357 50.7301 21.9015 49.5575 19.0706C48.3849 16.2396 46.6662 13.6674 44.4995 11.5007C42.3328 9.33398 39.7605 7.61526 36.9296 6.44265C34.0987 5.27004 31.0645 4.6665 28.0003 4.6665ZM28.0003 46.6665C24.3084 46.6665 20.6994 45.5717 17.6297 43.5206C14.56 41.4695 12.1674 38.5541 10.7546 35.1433C9.34175 31.7324 8.97209 27.9791 9.69234 24.3582C10.4126 20.7372 12.1904 17.4111 14.801 14.8005C17.4116 12.1899 20.7377 10.4121 24.3587 9.69185C27.9796 8.97159 31.7329 9.34125 35.1438 10.7541C38.5546 12.1669 41.47 14.5595 43.5211 17.6292C45.5722 20.6989 46.667 24.3079 46.667 27.9998C46.667 32.9505 44.7003 37.6985 41.1997 41.1992C37.699 44.6998 32.951 46.6665 28.0003 46.6665Z" />
        <path
            d="M35.0003 25.6667H30.3337V16.3333C30.3337 15.7145 30.0878 15.121 29.6502 14.6834C29.2127 14.2458 28.6192 14 28.0003 14C27.3815 14 26.788 14.2458 26.3504 14.6834C25.9128 15.121 25.667 15.7145 25.667 16.3333V28C25.667 28.6188 25.9128 29.2123 26.3504 29.6499C26.788 30.0875 27.3815 30.3333 28.0003 30.3333H35.0003C35.6192 30.3333 36.2127 30.0875 36.6502 29.6499C37.0878 29.2123 37.3337 28.6188 37.3337 28C37.3337 27.3812 37.0878 26.7877 36.6502 26.3501C36.2127 25.9125 35.6192 25.6667 35.0003 25.6667Z" />

    </symbol>
    <symbol xmlns="http://www.w3.org/2000/svg" viewBox="0 0 14 14" id="close" fill="inherit">
        <path fill-rule="evenodd"
            d="M3.47 3.47a.75.75 0 0 1 1.06 0L8 6.94l3.47-3.47a.75.75 0 1 1 1.06 1.06L9.06 8l3.47 3.47a.75.75 0 1 1-1.06 1.06L8 9.06l-3.47 3.47a.75.75 0 0 1-1.06-1.06L6.94 8 3.47 4.53a.75.75 0 0 1 0-1.06Z"
            clip-rule="evenodd" />
    </symbol>
    <symbol xmlns="http://www.w3.org/2000/svg" viewBox="0 0 56 56" id="dots" fill="inherit">
        <path
            d="M28.003 21.8398C27.1937 21.8398 26.3923 21.9992 25.6446 22.309C24.8969 22.6187 24.2175 23.0726 23.6453 23.6449C23.073 24.2172 22.6191 24.8965 22.3093 25.6442C21.9996 26.3919 21.8402 27.1933 21.8402 28.0026C21.8402 28.812 21.9996 29.6133 22.3093 30.361C22.6191 31.1088 23.073 31.7881 23.6453 32.3604C24.2175 32.9327 24.8969 33.3866 25.6446 33.6963C26.3923 34.006 27.1937 34.1654 28.003 34.1654C29.6375 34.1651 31.2049 33.5154 32.3604 32.3594C33.5159 31.2034 34.1648 29.6357 34.1644 28.0012C34.1641 26.3668 33.5144 24.7994 32.3584 23.6439C31.2024 22.4884 29.6347 21.8395 28.0002 21.8398H28.003ZM8.40303 21.8398C7.59372 21.8398 6.79234 21.9992 6.04463 22.309C5.29693 22.6187 4.61755 23.0726 4.04528 23.6449C3.47301 24.2172 3.01906 24.8965 2.70935 25.6442C2.39964 26.3919 2.24023 27.1933 2.24023 28.0026C2.24023 28.812 2.39964 29.6133 2.70935 30.361C3.01906 31.1088 3.47301 31.7881 4.04528 32.3604C4.61755 32.9327 5.29693 33.3866 6.04463 33.6963C6.79234 34.006 7.59372 34.1654 8.40303 34.1654C10.0375 34.1651 11.6049 33.5154 12.7604 32.3594C13.9159 31.2034 14.5648 29.6357 14.5644 28.0012C14.5641 26.3668 13.9144 24.7994 12.7584 23.6439C11.6024 22.4884 10.0347 21.8395 8.40023 21.8398H8.40303ZM47.603 21.8398C46.7937 21.8398 45.9923 21.9992 45.2446 22.309C44.4969 22.6187 43.8175 23.0726 43.2453 23.6449C42.673 24.2172 42.2191 24.8965 41.9093 25.6442C41.5996 26.3919 41.4402 27.1933 41.4402 28.0026C41.4402 28.812 41.5996 29.6133 41.9093 30.361C42.2191 31.1088 42.673 31.7881 43.2453 32.3604C43.8175 32.9327 44.4969 33.3866 45.2446 33.6963C45.9923 34.006 46.7937 34.1654 47.603 34.1654C49.2375 34.1651 50.8049 33.5154 51.9604 32.3594C53.1159 31.2034 53.7648 29.6357 53.7644 28.0012C53.7641 26.3668 53.1144 24.7994 51.9584 23.6439C50.8024 22.4884 49.2347 21.8395 47.6002 21.8398H47.603Z" />

    </symbol>
    <symbol xmlns="http://www.w3.org/2000/svg" viewBox="0 0 36 36" id="earmark" fill="inherit">
        <path
            d="M21.5034 15.5C21.5034 17.0416 20.8901 18.52 19.7983 19.6101C18.7065 20.7001 17.2258 21.3125 15.6818 21.3125C14.1378 21.3125 12.6571 20.7001 11.5653 19.6101C10.4736 18.52 9.86023 17.0416 9.86023 15.5C9.86023 13.9584 10.4736 12.48 11.5653 11.3899C12.6571 10.2999 14.1378 9.6875 15.6818 9.6875C17.2258 9.6875 18.7065 10.2999 19.7983 11.3899C20.8901 12.48 21.5034 13.9584 21.5034 15.5Z" />
        <path
            d="M27.325 27.125V8.71875L18.5926 0H7.9197C6.89038 0 5.90321 0.408258 5.17537 1.13496C4.44753 1.86166 4.03864 2.84729 4.03864 3.875V27.125C4.03864 28.1527 4.44753 29.1383 5.17537 29.865C5.90321 30.5917 6.89038 31 7.9197 31H23.4439C24.4733 31 25.4604 30.5917 26.1883 29.865C26.9161 29.1383 27.325 28.1527 27.325 27.125ZM18.5926 5.8125C18.5926 6.58329 18.8993 7.3225 19.4452 7.86753C19.991 8.41256 20.7314 8.71875 21.5034 8.71875H25.3845V26.6503C25.3845 26.6503 23.4439 23.25 15.6818 23.25C7.9197 23.25 5.97917 26.6503 5.97917 26.6503V3.875C5.97917 3.36114 6.18361 2.86833 6.54753 2.50498C6.91145 2.14163 7.40504 1.9375 7.9197 1.9375H18.5926V5.8125Z" />

    </symbol>
    <symbol xmlns="http://www.w3.org/2000/svg" viewBox="0 0 56 56" id="email" fill="inherit">
        <path
            d="M46.6663 9.3335H9.33301C7.47649 9.3335 5.69601 10.071 4.38326 11.3837C3.07051 12.6965 2.33301 14.477 2.33301 16.3335V39.6668C2.33301 41.5233 3.07051 43.3038 4.38326 44.6166C5.69601 45.9293 7.47649 46.6668 9.33301 46.6668H46.6663C48.5229 46.6668 50.3033 45.9293 51.6161 44.6166C52.9288 43.3038 53.6663 41.5233 53.6663 39.6668V16.3335C53.6663 14.477 52.9288 12.6965 51.6161 11.3837C50.3033 10.071 48.5229 9.3335 46.6663 9.3335ZM48.9997 39.0835L37.5663 28.8168L48.9997 20.8135V39.0835ZM6.99967 20.8135L18.433 28.8168L6.99967 39.0835V20.8135ZM22.353 31.5702L26.6697 34.5802C27.0603 34.8511 27.5243 34.9963 27.9997 34.9963C28.475 34.9963 28.9391 34.8511 29.3297 34.5802L33.6463 31.5702L45.313 42.0002H10.733L22.353 31.5702ZM9.33301 14.0002H46.6663C47.0997 14.0036 47.5235 14.1277 47.8903 14.3585C48.2571 14.5893 48.5523 14.9177 48.743 15.3068L27.9997 29.8202L7.25634 15.3068C7.447 14.9177 7.74227 14.5893 8.10906 14.3585C8.47585 14.1277 8.89966 14.0036 9.33301 14.0002Z" />

    </symbol>
    <symbol xmlns="http://www.w3.org/2000/svg" viewBox="0 0 56 56" id="gear" fill="inherit">
        <path
            d="M21.46 4.6665L19.9788 11.3156C19.1364 11.721 18.3312 12.1878 17.5589 12.7147L11.0602 10.6685L4.52051 21.9979L9.44694 26.5096C9.25446 27.9382 9.34165 28.6425 9.44694 29.4901L4.52051 34.0018L11.0602 45.3312L17.5589 43.285C18.3312 43.8118 19.1364 44.2787 19.9788 44.6841L21.46 51.3332H34.5394L36.0205 44.6841C36.8629 44.2787 37.6682 43.8118 38.4404 43.285L44.9391 45.3312L51.4788 34.0018L46.5524 29.4901C46.5927 28.9941 46.6658 28.4978 46.6663 27.9998C46.6682 27.4868 46.5874 26.9687 46.5524 26.5096L51.4788 21.9979L44.9391 10.6685L38.4404 12.7147C37.6682 12.1878 36.8629 11.721 36.0205 11.3156L34.5394 4.6665H21.46ZM25.2061 9.33317H30.7933L31.9463 14.5103L33.1038 14.966C34.4133 15.4788 35.6373 16.1846 36.736 17.0623L37.7113 17.8371L42.7699 16.2466L45.5635 21.0864L41.6533 24.673L41.8402 25.9035C42.0601 27.2643 42.0173 28.8303 41.8402 30.0962L41.6533 31.3267L45.5635 34.9132L42.7699 39.7531L37.7113 38.1626L36.736 38.9373C35.6373 39.815 34.4133 40.5209 33.1038 41.0337L31.9463 41.4894L30.7933 46.6665H25.2061L24.0531 41.4894L22.8955 41.0337C21.5861 40.5209 20.3621 39.815 19.2633 38.9373L18.2881 38.1626L13.2295 39.7531L10.4359 34.9132L14.346 31.3267L14.1592 30.0962C13.9313 28.708 13.9663 27.1191 14.1592 25.9035L14.346 24.673L10.4359 21.0864L13.2295 16.2466L18.2881 17.8371L19.2633 17.0623C20.3621 16.1846 21.5861 15.4788 22.8955 14.966L24.0531 14.5103L25.2061 9.33317ZM27.9997 18.6665C22.8727 18.6665 18.6663 22.8728 18.6663 27.9998C18.6663 33.1269 22.8727 37.3332 27.9997 37.3332C33.1267 37.3332 37.333 33.1269 37.333 27.9998C37.333 22.8728 33.1267 18.6665 27.9997 18.6665ZM27.9997 23.3332C30.6046 23.3332 32.6663 25.3949 32.6663 27.9998C32.6663 30.6048 30.6046 32.6665 27.9997 32.6665C25.3947 32.6665 23.333 30.6048 23.333 27.9998C23.333 25.3949 25.3947 23.3332 27.9997 23.3332Z" />

    </symbol>
    <symbol xmlns="http://www.w3.org/2000/svg" viewBox="0 0 56 56" id="home" fill="inherit">
        <path
            d="M46.6669 18.6667L32.6669 6.39335C31.3835 5.24545 29.7221 4.61084 28.0002 4.61084C26.2784 4.61084 24.6169 5.24545 23.3336 6.39335L9.33355 18.6667C8.59241 19.3295 8.00099 20.1426 7.59866 21.0519C7.19632 21.9612 6.99232 22.9457 7.00022 23.94V44.3333C7.00022 46.1899 7.73772 47.9703 9.05047 49.2831C10.3632 50.5958 12.1437 51.3333 14.0002 51.3333H42.0002C43.8567 51.3333 45.6372 50.5958 46.95 49.2831C48.2627 47.9703 49.0002 46.1899 49.0002 44.3333V23.9167C49.0048 22.9263 48.7992 21.9463 48.397 21.0413C47.9948 20.1363 47.4051 19.3269 46.6669 18.6667ZM32.6669 46.6667H23.3336V35C23.3336 34.3812 23.5794 33.7877 24.017 33.3501C24.4546 32.9125 25.048 32.6667 25.6669 32.6667H30.3336C30.9524 32.6667 31.5459 32.9125 31.9835 33.3501C32.4211 33.7877 32.6669 34.3812 32.6669 35V46.6667ZM44.3336 44.3333C44.3336 44.9522 44.0877 45.5457 43.6501 45.9833C43.2126 46.4208 42.6191 46.6667 42.0002 46.6667H37.3336V35C37.3336 33.1435 36.5961 31.363 35.2833 30.0503C33.9705 28.7375 32.1901 28 30.3336 28H25.6669C23.8104 28 22.0299 28.7375 20.7171 30.0503C19.4044 31.363 18.6669 33.1435 18.6669 35V46.6667H14.0002C13.3814 46.6667 12.7879 46.4208 12.3503 45.9833C11.9127 45.5457 11.6669 44.9522 11.6669 44.3333V23.9167C11.6673 23.5854 11.7383 23.258 11.8751 22.9562C12.0119 22.6545 12.2113 22.3853 12.4602 22.1667L26.4602 9.91668C26.886 9.5426 27.4334 9.3363 28.0002 9.3363C28.567 9.3363 29.1144 9.5426 29.5402 9.91668L43.5402 22.1667C43.7891 22.3853 43.9886 22.6545 44.1254 22.9562C44.2622 23.258 44.3331 23.5854 44.3336 23.9167V44.3333Z" />

    </symbol>
    <symbol xmlns="http://www.w3.org/2000/svg" viewBox="0 0 14 14" id="list" fill="inherit">
        <path fill-rule="evenodd" clip-rule="evenodd"
            d="M2.5 12C2.5 11.8674 2.55268 11.7402 2.64645 11.6464C2.74021 11.5527 2.86739 11.5 3 11.5H13C13.1326 11.5 13.2598 11.5527 13.3536 11.6464C13.4473 11.7402 13.5 11.8674 13.5 12C13.5 12.1326 13.4473 12.2598 13.3536 12.3536C13.2598 12.4473 13.1326 12.5 13 12.5H3C2.86739 12.5 2.74021 12.4473 2.64645 12.3536C2.55268 12.2598 2.5 12.1326 2.5 12ZM2.5 8C2.5 7.86739 2.55268 7.74021 2.64645 7.64645C2.74021 7.55268 2.86739 7.5 3 7.5H13C13.1326 7.5 13.2598 7.55268 13.3536 7.64645C13.4473 7.74021 13.5 7.86739 13.5 8C13.5 8.13261 13.4473 8.25979 13.3536 8.35355C13.2598 8.44732 13.1326 8.5 13 8.5H3C2.86739 8.5 2.74021 8.44732 2.64645 8.35355C2.55268 8.25979 2.5 8.13261 2.5 8ZM2.5 4C2.5 3.86739 2.55268 3.74021 2.64645 3.64645C2.74021 3.55268 2.86739 3.5 3 3.5H13C13.1326 3.5 13.2598 3.55268 13.3536 3.64645C13.4473 3.74021 13.5 3.86739 13.5 4C13.5 4.13261 13.4473 4.25979 13.3536 4.35355C13.2598 4.44732 13.1326 4.5 13 4.5H3C2.86739 4.5 2.74021 4.44732 2.64645 4.35355C2.55268 4.25979 2.5 4.13261 2.5 4Z" />

    </symbol>
    <symbol xmlns="http://www.w3.org/2000/svg" viewBox="0 0 16 16" id="location" fill="inherit">
        <g clip-path="url(#clip0_1114_1157)">
            <path
                d="M12.874 8.94C12.3492 10.002 11.6381 11.06 10.911 12.01C10.2212 12.9056 9.48364 13.7635 8.70152 14.58C7.91938 13.7635 7.18183 12.9056 6.49207 12.01C5.76494 11.06 5.05383 10.002 4.52901 8.94C3.99818 7.867 3.6937 6.862 3.6937 6C3.6937 4.67392 4.22131 3.40215 5.16046 2.46447C6.09961 1.52678 7.37336 1 8.70152 1C10.0297 1 11.3034 1.52678 12.2426 2.46447C13.1817 3.40215 13.7093 4.67392 13.7093 6C13.7093 6.862 13.4039 7.867 12.874 8.94ZM8.70152 16C8.70152 16 14.7109 10.314 14.7109 6C14.7109 4.4087 14.0778 2.88258 12.9508 1.75736C11.8238 0.632141 10.2953 0 8.70152 0C7.10773 0 5.57922 0.632141 4.45225 1.75736C3.32527 2.88258 2.69214 4.4087 2.69214 6C2.69214 10.314 8.70152 16 8.70152 16Z" />
            <path
                d="M8.70147 8C8.17021 8 7.6607 7.78929 7.28504 7.41421C6.90938 7.03914 6.69834 6.53043 6.69834 6C6.69834 5.46957 6.90938 4.96086 7.28504 4.58579C7.6607 4.21071 8.17021 4 8.70147 4C9.23273 4 9.74223 4.21071 10.1179 4.58579C10.4936 4.96086 10.7046 5.46957 10.7046 6C10.7046 6.53043 10.4936 7.03914 10.1179 7.41421C9.74223 7.78929 9.23273 8 8.70147 8ZM8.70147 9C9.49836 9 10.2626 8.68393 10.8261 8.12132C11.3896 7.55871 11.7062 6.79565 11.7062 6C11.7062 5.20435 11.3896 4.44129 10.8261 3.87868C10.2626 3.31607 9.49836 3 8.70147 3C7.90457 3 7.14032 3.31607 6.57683 3.87868C6.01334 4.44129 5.69678 5.20435 5.69678 6C5.69678 6.79565 6.01334 7.55871 6.57683 8.12132C7.14032 8.68393 7.90457 9 8.70147 9Z" />
        </g>
        <defs>
            <clipPath id="clip0_1114_1157">
                <rect width="16.025" height="16" fill="white" transform="translate(0.688965)" />
            </clipPath>
        </defs>

    </symbol>
    <symbol xmlns="http://www.w3.org/2000/svg" viewBox="0 0 56 56" id="print" fill="inherit">
        <g clip-path="url(#clip0_58_309)">
            <path
                d="M53.6667 44.3332H44.17C43.5512 44.3332 42.9577 44.0873 42.5201 43.6498C42.0825 43.2122 41.8367 42.6187 41.8367 41.9998V34.9998H14V41.9998C14 42.6187 13.7542 43.2122 13.3166 43.6498C12.879 44.0873 12.2855 44.3332 11.6667 44.3332H2.33333C1.71449 44.3332 1.121 44.0873 0.683417 43.6498C0.245833 43.2122 0 42.6187 0 41.9998V18.6665C0 16.81 0.737498 15.0295 2.05025 13.7168C3.36301 12.404 5.14348 11.6665 7 11.6665H49C50.8565 11.6665 52.637 12.404 53.9497 13.7168C55.2625 15.0295 56 16.81 56 18.6665V41.9998C56 42.6187 55.7542 43.2122 55.3166 43.6498C54.879 44.0873 54.2855 44.3332 53.6667 44.3332ZM46.5033 39.6665H51.3333V18.6665C51.3368 18.3591 51.2788 18.0542 51.1627 17.7695C51.0467 17.4849 50.8749 17.2263 50.6576 17.0089C50.4402 16.7916 50.1816 16.6198 49.897 16.5038C49.6123 16.3877 49.3074 16.3297 49 16.3332H7C6.69263 16.3297 6.38767 16.3877 6.10302 16.5038C5.81837 16.6198 5.55978 16.7916 5.34242 17.0089C5.12506 17.2263 4.95332 17.4849 4.83728 17.7695C4.72123 18.0542 4.66323 18.3591 4.66667 18.6665V39.6665H9.33333V32.6665C9.33333 32.0477 9.57917 31.4542 10.0168 31.0166C10.4543 30.579 11.0478 30.3332 11.6667 30.3332H44.17C44.7888 30.3332 45.3823 30.579 45.8199 31.0166C46.2575 31.4542 46.5033 32.0477 46.5033 32.6665V39.6665Z" />
            <path
                d="M44.1767 16.3333H11.6663C11.0475 16.3333 10.454 16.0875 10.0164 15.6499C9.57884 15.2123 9.33301 14.6188 9.33301 14V2.33333C9.33301 1.71449 9.57884 1.121 10.0164 0.683417C10.454 0.245833 11.0475 0 11.6663 0L44.1767 0C44.7955 0 45.389 0.245833 45.8266 0.683417C46.2642 1.121 46.51 1.71449 46.51 2.33333V14C46.51 14.6188 46.2642 15.2123 45.8266 15.6499C45.389 16.0875 44.7955 16.3333 44.1767 16.3333ZM13.9997 11.6667H41.8433V4.66667H13.9997V11.6667ZM39.7433 56H16.0997C14.305 56 12.5839 55.2871 11.3149 54.0181C10.0459 52.7491 9.33301 51.028 9.33301 49.2333V32.6667C9.33301 32.0478 9.57884 31.4543 10.0164 31.0168C10.454 30.5792 11.0475 30.3333 11.6663 30.3333H44.1697C44.7885 30.3333 45.382 30.5792 45.8196 31.0168C46.2572 31.4543 46.503 32.0478 46.503 32.6667V49.2333C46.503 51.0268 45.7911 52.7468 44.5236 54.0156C43.2561 55.2844 41.5368 55.9981 39.7433 56ZM13.9997 35V49.2333C13.9997 49.7903 14.2209 50.3244 14.6147 50.7183C15.0086 51.1121 15.5427 51.3333 16.0997 51.3333H39.7433C40.3003 51.3333 40.8344 51.1121 41.2283 50.7183C41.6221 50.3244 41.8433 49.7903 41.8433 49.2333V35H13.9997ZM46.6663 23.3333H44.333C43.7142 23.3333 43.1207 23.0875 42.6831 22.6499C42.2455 22.2123 41.9997 21.6188 41.9997 21C41.9997 20.3812 42.2455 19.7877 42.6831 19.3501C43.1207 18.9125 43.7142 18.6667 44.333 18.6667H46.6663C47.2852 18.6667 47.8787 18.9125 48.3163 19.3501C48.7538 19.7877 48.9997 20.3812 48.9997 21C48.9997 21.6188 48.7538 22.2123 48.3163 22.6499C47.8787 23.0875 47.2852 23.3333 46.6663 23.3333Z" />
            <path
                d="M35.0003 42.0002H21.0003C20.3815 42.0002 19.788 41.7543 19.3504 41.3167C18.9128 40.8792 18.667 40.2857 18.667 39.6668C18.667 39.048 18.9128 38.4545 19.3504 38.0169C19.788 37.5793 20.3815 37.3335 21.0003 37.3335H35.0003C35.6192 37.3335 36.2127 37.5793 36.6502 38.0169C37.0878 38.4545 37.3337 39.048 37.3337 39.6668C37.3337 40.2857 37.0878 40.8792 36.6502 41.3167C36.2127 41.7543 35.6192 42.0002 35.0003 42.0002ZM28.0003 49.0002H21.0003C20.3815 49.0002 19.788 48.7543 19.3504 48.3167C18.9128 47.8792 18.667 47.2857 18.667 46.6668C18.667 46.048 18.9128 45.4545 19.3504 45.0169C19.788 44.5793 20.3815 44.3335 21.0003 44.3335H28.0003C28.6192 44.3335 29.2127 44.5793 29.6502 45.0169C30.0878 45.4545 30.3337 46.048 30.3337 46.6668C30.3337 47.2857 30.0878 47.8792 29.6502 48.3167C29.2127 48.7543 28.6192 49.0002 28.0003 49.0002Z" />
        </g>
        <defs>
            <clipPath id="clip0_58_309">
                <rect width="56" height="56" fill="white" />
            </clipPath>
        </defs>
    </symbol>
    <symbol xmlns="http://www.w3.org/2000/svg" viewBox="0 0 48 48" id="search" fill="inherit">
        <path
            d="M48.3 45.1503L38.5 35.3503C40.775 32.3753 42.175 28.7003 42.175 24.6753C42.175 15.0503 34.3 7.17529 24.675 7.17529C15.05 7.17529 7 15.0503 7 24.6753C7 34.3003 14.875 42.1753 24.5 42.1753C28.525 42.1753 32.375 40.7753 35.35 38.3253L45.15 48.1253C45.5 48.4753 46.2 48.8253 46.725 48.8253C47.25 48.8253 47.775 48.6503 48.3 48.1253C49.175 47.4253 49.175 46.0253 48.3 45.1503ZM11.375 24.6753C11.375 17.5003 17.325 11.5503 24.5 11.5503C31.675 11.5503 37.625 17.5003 37.625 24.6753C37.625 31.8503 31.675 37.8003 24.5 37.8003C17.325 37.8003 11.375 32.0253 11.375 24.6753Z" />

    </symbol>
    <symbol xmlns="http://www.w3.org/2000/svg" viewBox="0 0 36 36" id="sliders" fill="inherit">
        <path fill-rule="evenodd" clip-rule="evenodd"
            d="M22.2812 2.00974C21.8996 2.00974 21.5217 2.08491 21.1691 2.23096C20.8165 2.37702 20.4961 2.59109 20.2262 2.86096C19.9564 3.13083 19.7423 3.45121 19.5962 3.80381C19.4502 4.15642 19.375 4.53433 19.375 4.91599C19.375 5.29764 19.4502 5.67556 19.5962 6.02816C19.7423 6.38076 19.9564 6.70115 20.2262 6.97102C20.4961 7.24089 20.8165 7.45496 21.1691 7.60101C21.5217 7.74707 21.8996 7.82224 22.2812 7.82224C23.052 7.82224 23.7913 7.51605 24.3363 6.97102C24.8813 6.42599 25.1875 5.68677 25.1875 4.91599C25.1875 4.1452 24.8813 3.40599 24.3363 2.86096C23.7913 2.31593 23.052 2.00974 22.2812 2.00974ZM17.5344 3.94724C17.7567 2.85227 18.3508 1.86784 19.2159 1.16075C20.081 0.453654 21.1639 0.0673828 22.2812 0.0673828C23.3986 0.0673828 24.4815 0.453654 25.3466 1.16075C26.2117 1.86784 26.8058 2.85227 27.0281 3.94724H31V5.88474H27.0281C26.8058 6.97971 26.2117 7.96414 25.3466 8.67123C24.4815 9.37832 23.3986 9.76459 22.2812 9.7646C21.1639 9.7646 20.081 9.37832 19.2159 8.67123C18.3508 7.96414 17.7567 6.97971 17.5344 5.88474H0V3.94724H17.5344ZM8.71875 11.6972C7.94796 11.6972 7.20875 12.0034 6.66372 12.5485C6.11869 13.0935 5.8125 13.8327 5.8125 14.6035C5.8125 15.3743 6.11869 16.1135 6.66372 16.6585C7.20875 17.2035 7.94796 17.5097 8.71875 17.5097C9.48954 17.5097 10.2288 17.2035 10.7738 16.6585C11.3188 16.1135 11.625 15.3743 11.625 14.6035C11.625 13.8327 11.3188 13.0935 10.7738 12.5485C10.2288 12.0034 9.48954 11.6972 8.71875 11.6972ZM3.97187 13.6347C4.19422 12.5398 4.78827 11.5553 5.65337 10.8482C6.51848 10.1412 7.60144 9.75488 8.71875 9.75488C9.83606 9.75488 10.919 10.1412 11.7841 10.8482C12.6492 11.5553 13.2433 12.5398 13.4656 13.6347H31V15.5722H13.4656C13.2433 16.6672 12.6492 17.6516 11.7841 18.3587C10.919 19.0658 9.83606 19.4521 8.71875 19.4521C7.60144 19.4521 6.51848 19.0658 5.65337 18.3587C4.78827 17.6516 4.19422 16.6672 3.97187 15.5722H0V13.6347H3.97187ZM22.2812 21.3847C21.5105 21.3847 20.7712 21.6909 20.2262 22.236C19.6812 22.781 19.375 23.5202 19.375 24.291C19.375 25.0618 19.6812 25.801 20.2262 26.346C20.7712 26.891 21.5105 27.1972 22.2812 27.1972C23.052 27.1972 23.7913 26.891 24.3363 26.346C24.8813 25.801 25.1875 25.0618 25.1875 24.291C25.1875 23.5202 24.8813 22.781 24.3363 22.236C23.7913 21.6909 23.052 21.3847 22.2812 21.3847ZM17.5344 23.3222C17.7567 22.2273 18.3508 21.2428 19.2159 20.5357C20.081 19.8287 21.1639 19.4424 22.2812 19.4424C23.3986 19.4424 24.4815 19.8287 25.3466 20.5357C26.2117 21.2428 26.8058 22.2273 27.0281 23.3222H31V25.2597H27.0281C26.8058 26.3547 26.2117 27.3391 25.3466 28.0462C24.4815 28.7533 23.3986 29.1396 22.2812 29.1396C21.1639 29.1396 20.081 28.7533 19.2159 28.0462C18.3508 27.3391 17.7567 26.3547 17.5344 25.2597H0V23.3222H17.5344Z" />
    </symbol>
    <symbol xmlns="http://www.w3.org/2000/svg" viewBox="0 0 16 16" id="star" fill="inherit">
        <path
            d="M2.86465 14.3511C2.78665 14.7951 3.22465 15.1421 3.61065 14.9441L8.00065 12.6881L12.3897 14.9441C12.7757 15.1421 13.2137 14.7951 13.1357 14.3521L12.3057 9.62214L15.8277 6.26614C16.1577 5.95214 15.9877 5.37814 15.5457 5.31614L10.6477 4.62014L8.46365 0.293144C8.42205 0.205433 8.35641 0.131327 8.27436 0.0794362C8.19232 0.0275455 8.09723 0 8.00015 0C7.90308 0 7.80799 0.0275455 7.72594 0.0794362C7.6439 0.131327 7.57826 0.205433 7.53665 0.293144L5.35265 4.62114L0.454653 5.31714C0.0136534 5.37914 -0.157347 5.95314 0.171653 6.26714L3.69465 9.62314L2.86465 14.3531V14.3511ZM7.76965 11.5841L4.08365 13.4781L4.77765 9.52114C4.79391 9.43006 4.78755 9.33637 4.75913 9.24832C4.73071 9.16026 4.6811 9.08054 4.61465 9.01614L1.70865 6.24614L5.76065 5.67014C5.84456 5.65747 5.92414 5.62465 5.99259 5.5745C6.06103 5.52434 6.1163 5.45834 6.15365 5.38214L7.99865 1.72414L9.84565 5.38214C9.88301 5.45834 9.93828 5.52434 10.0067 5.5745C10.0752 5.62465 10.1547 5.65747 10.2387 5.67014L14.2907 6.24514L11.3847 9.01514C11.3181 9.07964 11.2684 9.15953 11.2399 9.24778C11.2115 9.33602 11.2052 9.4299 11.2217 9.52114L11.9157 13.4781L8.22965 11.5841C8.15838 11.5474 8.07935 11.5282 7.99915 11.5282C7.91896 11.5282 7.83993 11.5474 7.76865 11.5841H7.76965Z" />

    </symbol>
    <symbol xmlns="http://www.w3.org/2000/svg" viewBox="0 0 26 26" id="suitcase" fill="inherit">
        <path
            d="M13.3667 0C12.5947 0 11.8544 0.306193 11.3085 0.851221C10.7626 1.39625 10.4559 2.13546 10.4559 2.90625V3.875H3.66409C2.8921 3.875 2.15173 4.18119 1.60585 4.72622C1.05997 5.27125 0.753296 6.01046 0.753296 6.78125L0.753296 22.2812C0.753296 23.052 1.05997 23.7913 1.60585 24.3363C2.15173 24.8813 2.8921 25.1875 3.66409 25.1875H28.891C29.663 25.1875 30.4033 24.8813 30.9492 24.3363C31.4951 23.7913 31.8018 23.052 31.8018 22.2812V6.78125C31.8018 6.01046 31.4951 5.27125 30.9492 4.72622C30.4033 4.18119 29.663 3.875 28.891 3.875H22.0991V2.90625C22.0991 2.13546 21.7924 1.39625 21.2466 0.851221C20.7007 0.306193 19.9603 0 19.1883 0H13.3667ZM13.3667 1.9375H19.1883C19.4457 1.9375 19.6924 2.03956 19.8744 2.22124C20.0564 2.40292 20.1586 2.64932 20.1586 2.90625V3.875H12.3965V2.90625C12.3965 2.64932 12.4987 2.40292 12.6807 2.22124C12.8626 2.03956 13.1094 1.9375 13.3667 1.9375ZM17.0266 15.3334L29.8612 11.9176V22.2812C29.8612 22.5382 29.759 22.7846 29.5771 22.9663C29.3951 23.1479 29.1483 23.25 28.891 23.25H3.66409C3.40676 23.25 3.15997 23.1479 2.97801 22.9663C2.79605 22.7846 2.69383 22.5382 2.69383 22.2812V11.9156L15.5285 15.3334C16.0193 15.4639 16.5358 15.4639 17.0266 15.3334ZM3.66409 5.8125H28.891C29.1483 5.8125 29.3951 5.91456 29.5771 6.09624C29.759 6.27792 29.8612 6.52432 29.8612 6.78125V9.91225L16.5279 13.4618C16.3638 13.5055 16.1912 13.5055 16.0272 13.4618L2.69383 9.91225V6.78125C2.69383 6.52432 2.79605 6.27792 2.97801 6.09624C3.15997 5.91456 3.40676 5.8125 3.66409 5.8125Z" />

    </symbol>
    <symbol xmlns="http://www.w3.org/2000/svg" viewBox="0 0 18 18" id="three_dots_vertical" fill="inherit">
        <path
            d="M4 14.1538C4 14.6435 3.78929 15.1131 3.41421 15.4593C3.03914 15.8055 2.53043 16 2 16C1.46957 16 0.960859 15.8055 0.585786 15.4593C0.210713 15.1131 0 14.6435 0 14.1538C0 13.6642 0.210713 13.1946 0.585786 12.8484C0.960859 12.5022 1.46957 12.3077 2 12.3077C2.53043 12.3077 3.03914 12.5022 3.41421 12.8484C3.78929 13.1946 4 13.6642 4 14.1538ZM4 8C4 8.48963 3.78929 8.95921 3.41421 9.30543C3.03914 9.65165 2.53043 9.84615 2 9.84615C1.46957 9.84615 0.960859 9.65165 0.585786 9.30543C0.210713 8.95921 0 8.48963 0 8C0 7.51037 0.210713 7.04079 0.585786 6.69457C0.960859 6.34835 1.46957 6.15385 2 6.15385C2.53043 6.15385 3.03914 6.34835 3.41421 6.69457C3.78929 7.04079 4 7.51037 4 8ZM4 1.84615C4 2.33578 3.78929 2.80536 3.41421 3.15158C3.03914 3.4978 2.53043 3.69231 2 3.69231C1.46957 3.69231 0.960859 3.4978 0.585786 3.15158C0.210713 2.80536 0 2.33578 0 1.84615C0 1.35652 0.210713 0.886947 0.585786 0.540726C0.960859 0.194505 1.46957 0 2 0C2.53043 0 3.03914 0.194505 3.41421 0.540726C3.78929 0.886947 4 1.35652 4 1.84615Z" />

    </symbol>
    <symbol xmlns="http://www.w3.org/2000/svg" viewBox="0 0 16 16" id="trash" fill="inherit">
        <path
            d="M5.5 5.5C5.63261 5.5 5.75979 5.55268 5.85355 5.64645C5.94732 5.74021 6 5.86739 6 6V12C6 12.1326 5.94732 12.2598 5.85355 12.3536C5.75979 12.4473 5.63261 12.5 5.5 12.5C5.36739 12.5 5.24021 12.4473 5.14645 12.3536C5.05268 12.2598 5 12.1326 5 12V6C5 5.86739 5.05268 5.74021 5.14645 5.64645C5.24021 5.55268 5.36739 5.5 5.5 5.5ZM8 5.5C8.13261 5.5 8.25979 5.55268 8.35355 5.64645C8.44732 5.74021 8.5 5.86739 8.5 6V12C8.5 12.1326 8.44732 12.2598 8.35355 12.3536C8.25979 12.4473 8.13261 12.5 8 12.5C7.86739 12.5 7.74021 12.4473 7.64645 12.3536C7.55268 12.2598 7.5 12.1326 7.5 12V6C7.5 5.86739 7.55268 5.74021 7.64645 5.64645C7.74021 5.55268 7.86739 5.5 8 5.5ZM11 6C11 5.86739 10.9473 5.74021 10.8536 5.64645C10.7598 5.55268 10.6326 5.5 10.5 5.5C10.3674 5.5 10.2402 5.55268 10.1464 5.64645C10.0527 5.74021 10 5.86739 10 6V12C10 12.1326 10.0527 12.2598 10.1464 12.3536C10.2402 12.4473 10.3674 12.5 10.5 12.5C10.6326 12.5 10.7598 12.4473 10.8536 12.3536C10.9473 12.2598 11 12.1326 11 12V6Z" />
        <path fill-rule="evenodd" clip-rule="evenodd"
            d="M14.5 3C14.5 3.26522 14.3946 3.51957 14.2071 3.70711C14.0196 3.89464 13.7652 4 13.5 4H13V13C13 13.5304 12.7893 14.0391 12.4142 14.4142C12.0391 14.7893 11.5304 15 11 15H5C4.46957 15 3.96086 14.7893 3.58579 14.4142C3.21071 14.0391 3 13.5304 3 13V4H2.5C2.23478 4 1.98043 3.89464 1.79289 3.70711C1.60536 3.51957 1.5 3.26522 1.5 3V2C1.5 1.73478 1.60536 1.48043 1.79289 1.29289C1.98043 1.10536 2.23478 1 2.5 1H6C6 0.734784 6.10536 0.48043 6.29289 0.292893C6.48043 0.105357 6.73478 0 7 0L9 0C9.26522 0 9.51957 0.105357 9.70711 0.292893C9.89464 0.48043 10 0.734784 10 1H13.5C13.7652 1 14.0196 1.10536 14.2071 1.29289C14.3946 1.48043 14.5 1.73478 14.5 2V3ZM4.118 4L4 4.059V13C4 13.2652 4.10536 13.5196 4.29289 13.7071C4.48043 13.8946 4.73478 14 5 14H11C11.2652 14 11.5196 13.8946 11.7071 13.7071C11.8946 13.5196 12 13.2652 12 13V4.059L11.882 4H4.118ZM2.5 3V2H13.5V3H2.5Z" />

    </symbol>
    <symbol xmlns="http://www.w3.org/2000/svg" viewBox="0 0 56 56" id="user" fill="inherit">
        <path
            d="M36.6461 15.2252C36.6461 15.7064 36.6133 16.1877 36.5531 16.6635C36.5805 16.4721 36.6078 16.2752 36.6297 16.0838C36.4984 17.0354 36.2469 17.9596 35.8805 18.8455C35.9515 18.6705 36.0281 18.4955 36.0992 18.3205C35.7328 19.1846 35.2625 19.9939 34.6883 20.7377C34.8031 20.59 34.918 20.4424 35.0328 20.2947C34.464 21.0275 33.8023 21.6893 33.0695 22.258C33.2172 22.1432 33.3648 22.0283 33.5125 21.9135C32.7687 22.4822 31.9594 22.958 31.0953 23.3244C31.2703 23.2533 31.4453 23.1768 31.6203 23.1057C30.7344 23.4721 29.8101 23.7236 28.8586 23.8549C29.05 23.8275 29.2469 23.8002 29.4383 23.7783C28.4812 23.9041 27.5187 23.9041 26.5617 23.7783C26.7531 23.8057 26.95 23.833 27.1414 23.8549C26.1898 23.7236 25.2656 23.4721 24.3797 23.1057C24.5547 23.1768 24.7297 23.2533 24.9047 23.3244C24.0406 22.958 23.2312 22.4877 22.4875 21.9135C22.6351 22.0283 22.7828 22.1432 22.9304 22.258C22.1976 21.6893 21.5359 21.0275 20.9672 20.2947C21.082 20.4424 21.1969 20.59 21.3117 20.7377C20.7429 19.9939 20.2672 19.1846 19.9008 18.3205C19.9718 18.4955 20.0484 18.6705 20.1195 18.8455C19.7531 17.9596 19.5015 17.0354 19.3703 16.0838C19.3976 16.2752 19.425 16.4721 19.4468 16.6635C19.3211 15.7064 19.3211 14.7439 19.4468 13.7869C19.4195 13.9783 19.3922 14.1752 19.3703 14.3666C19.5015 13.415 19.7531 12.4908 20.1195 11.6049C20.0484 11.7799 19.9718 11.9549 19.9008 12.1299C20.2672 11.2658 20.7375 10.4564 21.3117 9.7127C21.1969 9.86035 21.082 10.008 20.9672 10.1557C21.5359 9.42285 22.1976 8.76113 22.9304 8.19238C22.7828 8.30723 22.6351 8.42207 22.4875 8.53692C23.2312 7.96817 24.0406 7.49238 24.9047 7.12598C24.7297 7.19707 24.5547 7.27363 24.3797 7.34473C25.2656 6.97832 26.1898 6.72676 27.1414 6.59551C26.95 6.62285 26.7531 6.6502 26.5617 6.67207C27.5187 6.54629 28.4812 6.54629 29.4383 6.67207C29.2469 6.64473 29.05 6.61738 28.8586 6.59551C29.8101 6.72676 30.7344 6.97832 31.6203 7.34473C31.4453 7.27363 31.2703 7.19707 31.0953 7.12598C31.9594 7.49238 32.7687 7.9627 33.5125 8.53692C33.3648 8.42207 33.2172 8.30723 33.0695 8.19238C33.8023 8.76113 34.464 9.42285 35.0328 10.1557C34.918 10.008 34.8031 9.86035 34.6883 9.7127C35.257 10.4564 35.7328 11.2658 36.0992 12.1299C36.0281 11.9549 35.9515 11.7799 35.8805 11.6049C36.2469 12.4908 36.4984 13.415 36.6297 14.3666C36.6023 14.1752 36.575 13.9783 36.5531 13.7869C36.6133 14.2627 36.6406 14.7439 36.6461 15.2252C36.6515 16.3682 37.6469 17.4674 38.8336 17.4127C40.0148 17.358 41.0266 16.4502 41.0211 15.2252C41.0101 12.6057 40.2226 9.92598 38.6805 7.79317C38.2648 7.21895 37.8219 6.65567 37.3297 6.14707C36.832 5.63301 36.2851 5.19004 35.7164 4.75801C34.6828 3.97051 33.5289 3.39082 32.3039 2.94238C27.3656 1.13223 21.4101 2.74551 18.0687 6.81426C17.6093 7.37207 17.1718 7.95176 16.8 8.5752C16.4281 9.19317 16.1383 9.84942 15.8703 10.5166C15.3672 11.7525 15.1101 13.065 15.0062 14.3939C14.8039 16.9971 15.482 19.715 16.8383 21.9463C18.1453 24.101 20.1195 25.9494 22.4273 26.9939C23.1054 27.3002 23.8 27.5846 24.5219 27.7869C25.2383 27.9838 25.9656 28.0932 26.7039 28.1807C28.0492 28.3393 29.4219 28.2299 30.7508 27.9619C35.7984 26.9338 40.0258 22.5861 40.8078 17.4838C40.9226 16.74 41.0101 15.9963 41.0101 15.2416C41.0156 14.0986 39.9984 12.9994 38.8226 13.0541C37.6414 13.0924 36.6461 14.0002 36.6461 15.2252ZM43.9031 49.4213C42.8312 49.4213 41.7594 49.4213 40.6875 49.4213C38.1336 49.4213 35.5851 49.4213 33.0312 49.4213C29.9578 49.4213 26.8844 49.4213 23.8054 49.4213C21.1531 49.4213 18.5008 49.4213 15.8429 49.4213C14.6015 49.4213 13.3601 49.4322 12.1187 49.4213C11.982 49.4213 11.8453 49.4104 11.714 49.3939C11.9054 49.4213 12.1023 49.4486 12.2937 49.4705C12.075 49.4377 11.8672 49.3775 11.6648 49.2955C11.8398 49.3666 12.0148 49.4432 12.1898 49.5143C11.9711 49.4213 11.7687 49.301 11.5773 49.1533C11.725 49.2682 11.8726 49.383 12.0203 49.4978C11.8562 49.3611 11.7031 49.2135 11.5718 49.0494C11.6867 49.1971 11.8015 49.3447 11.9164 49.4924C11.7687 49.301 11.6539 49.0986 11.5554 48.8799C11.6265 49.0549 11.7031 49.2299 11.7742 49.4049C11.6922 49.2025 11.6375 48.9893 11.5992 48.776C11.6265 48.9674 11.6539 49.1643 11.6757 49.3557C11.5882 48.6939 11.6484 47.9939 11.6484 47.3268C11.6484 46.5447 11.6484 45.7682 11.6484 44.9861C11.6484 44.401 11.6812 43.8213 11.7578 43.2416C11.7304 43.433 11.7031 43.6299 11.6812 43.8213C11.8343 42.7002 12.1297 41.601 12.5726 40.5564C12.5015 40.7314 12.425 40.9064 12.3539 41.0814C12.7804 40.0861 13.3273 39.151 13.989 38.2924C13.8742 38.44 13.7593 38.5877 13.6445 38.7354C14.3062 37.8877 15.0664 37.1221 15.9195 36.4604C15.7718 36.5752 15.6242 36.69 15.4765 36.8049C16.3351 36.1432 17.2703 35.5963 18.2656 35.1697C18.0906 35.2408 17.9156 35.3174 17.7406 35.3885C18.7851 34.951 19.8789 34.6502 21.0054 34.4971C20.814 34.5244 20.6172 34.5518 20.4258 34.5736C21.2351 34.4697 22.039 34.4643 22.8539 34.4643C23.8547 34.4643 24.8554 34.4643 25.8562 34.4643C28.1914 34.4643 30.5265 34.4643 32.8617 34.4643C33.764 34.4643 34.6609 34.4588 35.5633 34.5736C35.3719 34.5463 35.175 34.5189 34.9836 34.4971C36.1047 34.6502 37.2039 34.9455 38.2484 35.3885C38.0734 35.3174 37.8984 35.2408 37.7234 35.1697C38.7187 35.5963 39.6539 36.1432 40.5125 36.8049C40.3648 36.69 40.2172 36.5752 40.0695 36.4604C40.9172 37.1221 41.6828 37.8822 42.3445 38.7354C42.2297 38.5877 42.1148 38.44 42 38.2924C42.6617 39.151 43.2086 40.0861 43.6352 41.0814C43.5641 40.9064 43.4875 40.7314 43.4164 40.5564C43.8539 41.601 44.1547 42.6947 44.3078 43.8213C44.2805 43.6299 44.2531 43.433 44.2312 43.2416C44.3352 44.0674 44.3406 44.8877 44.3406 45.7189C44.3406 46.6213 44.3406 47.5236 44.3406 48.426C44.3406 48.7377 44.3516 49.0494 44.3133 49.3557C44.3406 49.1643 44.368 48.9674 44.3898 48.776C44.357 48.9947 44.2969 49.2025 44.2148 49.4049C44.2859 49.2299 44.3625 49.0549 44.4336 48.8799C44.3406 49.0986 44.2203 49.301 44.0727 49.4924C44.1875 49.3447 44.3023 49.1971 44.4172 49.0494C44.2805 49.2135 44.1328 49.3666 43.9687 49.4978C44.1164 49.383 44.2641 49.2682 44.4117 49.1533C44.2203 49.301 44.018 49.4158 43.7992 49.5143C43.9742 49.4432 44.1492 49.3666 44.3242 49.2955C44.1219 49.3775 43.9086 49.4322 43.6953 49.4705C43.8867 49.4432 44.0836 49.4158 44.275 49.3939C44.1547 49.4104 44.0289 49.4158 43.9031 49.4213C43.3398 49.4268 42.7602 49.6619 42.3555 50.0611C41.9781 50.4385 41.6883 51.0619 41.7156 51.6088C41.7703 52.7791 42.6781 53.8127 43.9031 53.7963C46.0305 53.7635 47.9008 52.3744 48.5242 50.3346C48.7703 49.5252 48.7156 48.6557 48.7156 47.8244C48.7156 45.9213 48.7758 44.0346 48.4477 42.1479C47.9664 39.3861 46.5773 36.7885 44.6742 34.7486C42.7711 32.7088 40.2117 31.2104 37.5047 30.5432C35.9515 30.1604 34.3875 30.1002 32.8015 30.1002C31.1719 30.1002 29.5476 30.1002 27.9179 30.1002C26.3101 30.1002 24.7078 30.1002 23.1 30.1002C21.4758 30.1002 19.8625 30.1768 18.282 30.5979C15.5968 31.3088 13.0703 32.8236 11.2054 34.8799C9.32418 36.9525 7.96246 39.5557 7.51949 42.3338C7.22418 44.1986 7.28434 46.0689 7.28434 47.9502C7.28434 48.8143 7.23512 49.7166 7.54684 50.5424C7.95153 51.6033 8.59684 52.44 9.54293 53.0689C10.2812 53.5557 11.2164 53.7908 12.0914 53.8018C12.5179 53.8072 12.9445 53.8018 13.3711 53.8018C14.4648 53.8018 15.5531 53.8018 16.6468 53.8018C18.2 53.8018 19.7476 53.8018 21.3008 53.8018C23.1054 53.8018 24.9101 53.8018 26.7148 53.8018C28.5687 53.8018 30.4172 53.8018 32.2711 53.8018C33.9664 53.8018 35.6562 53.8018 37.3516 53.8018C38.6805 53.8018 40.0094 53.8018 41.3328 53.8018C42.093 53.8018 42.8531 53.8018 43.6133 53.8018C43.7117 53.8018 43.8102 53.8018 43.9086 53.8018C45.0516 53.8018 46.1508 52.7955 46.0961 51.6143C46.0414 50.4221 45.1336 49.4213 43.9031 49.4213Z" />

    </symbol>
    <symbol xmlns="http://www.w3.org/2000/svg" viewBox="0 0 56 56" id="video" fill="inherit">
        <path
            d="M34.9997 14H6.99967C4.42235 14 2.33301 16.0893 2.33301 18.6667V37.3333C2.33301 39.9107 4.42235 42 6.99967 42H34.9997C37.577 42 39.6663 39.9107 39.6663 37.3333V18.6667C39.6663 16.0893 37.577 14 34.9997 14Z"
            stroke-width="2" stroke-linecap="round" stroke-linejoin="round" />
        <path d="M53.666 16.3335V39.6668L39.666 28.0002L53.666 16.3335Z" stroke-width="2" stroke-linecap="round"
            stroke-linejoin="round" />

    </symbol>
</svg>