<svg width="25" height="31" viewBox="0 0 25 31" fill="none" xmlns="http://www.w3.org/2000/svg">
    <path
        d="M21.5034 15.5C21.5034 17.0416 20.8901 18.52 19.7983 19.6101C18.7065 20.7001 17.2258 21.3125 15.6818 21.3125C14.1378 21.3125 12.6571 20.7001 11.5653 19.6101C10.4736 18.52 9.86023 17.0416 9.86023 15.5C9.86023 13.9584 10.4736 12.48 11.5653 11.3899C12.6571 10.2999 14.1378 9.6875 15.6818 9.6875C17.2258 9.6875 18.7065 10.2999 19.7983 11.3899C20.8901 12.48 21.5034 13.9584 21.5034 15.5Z" />
    <path
        d="M27.325 27.125V8.71875L18.5926 0H7.9197C6.89038 0 5.90321 0.408258 5.17537 1.13496C4.44753 1.86166 4.03864 2.84729 4.03864 3.875V27.125C4.03864 28.1527 4.44753 29.1383 5.17537 29.865C5.90321 30.5917 6.89038 31 7.9197 31H23.4439C24.4733 31 25.4604 30.5917 26.1883 29.865C26.9161 29.1383 27.325 28.1527 27.325 27.125ZM18.5926 5.8125C18.5926 6.58329 18.8993 7.3225 19.4452 7.86753C19.991 8.41256 20.7314 8.71875 21.5034 8.71875H25.3845V26.6503C25.3845 26.6503 23.4439 23.25 15.6818 23.25C7.9197 23.25 5.97917 26.6503 5.97917 26.6503V3.875C5.97917 3.36114 6.18361 2.86833 6.54753 2.50498C6.91145 2.14163 7.40504 1.9375 7.9197 1.9375H18.5926V5.8125Z" />
</svg>