<svg width="17" height="16" viewBox="0 0 17 16" fill="none" xmlns="http://www.w3.org/2000/svg">
    <g clip-path="url(#clip0_1114_1157)">
        <path
            d="M12.874 8.94C12.3492 10.002 11.6381 11.06 10.911 12.01C10.2212 12.9056 9.48364 13.7635 8.70152 14.58C7.91938 13.7635 7.18183 12.9056 6.49207 12.01C5.76494 11.06 5.05383 10.002 4.52901 8.94C3.99818 7.867 3.6937 6.862 3.6937 6C3.6937 4.67392 4.22131 3.40215 5.16046 2.46447C6.09961 1.52678 7.37336 1 8.70152 1C10.0297 1 11.3034 1.52678 12.2426 2.46447C13.1817 3.40215 13.7093 4.67392 13.7093 6C13.7093 6.862 13.4039 7.867 12.874 8.94ZM8.70152 16C8.70152 16 14.7109 10.314 14.7109 6C14.7109 4.4087 14.0778 2.88258 12.9508 1.75736C11.8238 0.632141 10.2953 0 8.70152 0C7.10773 0 5.57922 0.632141 4.45225 1.75736C3.32527 2.88258 2.69214 4.4087 2.69214 6C2.69214 10.314 8.70152 16 8.70152 16Z"
            fill="#5C6370" />
        <path
            d="M8.70147 8C8.17021 8 7.6607 7.78929 7.28504 7.41421C6.90938 7.03914 6.69834 6.53043 6.69834 6C6.69834 5.46957 6.90938 4.96086 7.28504 4.58579C7.6607 4.21071 8.17021 4 8.70147 4C9.23273 4 9.74223 4.21071 10.1179 4.58579C10.4936 4.96086 10.7046 5.46957 10.7046 6C10.7046 6.53043 10.4936 7.03914 10.1179 7.41421C9.74223 7.78929 9.23273 8 8.70147 8ZM8.70147 9C9.49836 9 10.2626 8.68393 10.8261 8.12132C11.3896 7.55871 11.7062 6.79565 11.7062 6C11.7062 5.20435 11.3896 4.44129 10.8261 3.87868C10.2626 3.31607 9.49836 3 8.70147 3C7.90457 3 7.14032 3.31607 6.57683 3.87868C6.01334 4.44129 5.69678 5.20435 5.69678 6C5.69678 6.79565 6.01334 7.55871 6.57683 8.12132C7.14032 8.68393 7.90457 9 8.70147 9Z"
            fill="#5C6370" />
    </g>
    <defs>
        <clipPath id="clip0_1114_1157">
            <rect width="16.025" height="16" fill="white" transform="translate(0.688965)" />
        </clipPath>
    </defs>
</svg>