<svg width="31" height="30" viewBox="0 0 31 30" fill="none" xmlns="http://www.w3.org/2000/svg">
<path fill-rule="evenodd" clip-rule="evenodd" d="M22.2812 2.00974C21.8996 2.00974 21.5217 2.08491 21.1691 2.23096C20.8165 2.37702 20.4961 2.59109 20.2262 2.86096C19.9564 3.13083 19.7423 3.45121 19.5962 3.80381C19.4502 4.15642 19.375 4.53433 19.375 4.91599C19.375 5.29764 19.4502 5.67556 19.5962 6.02816C19.7423 6.38076 19.9564 6.70115 20.2262 6.97102C20.4961 7.24089 20.8165 7.45496 21.1691 7.60101C21.5217 7.74707 21.8996 7.82224 22.2812 7.82224C23.052 7.82224 23.7913 7.51605 24.3363 6.97102C24.8813 6.42599 25.1875 5.68677 25.1875 4.91599C25.1875 4.1452 24.8813 3.40599 24.3363 2.86096C23.7913 2.31593 23.052 2.00974 22.2812 2.00974ZM17.5344 3.94724C17.7567 2.85227 18.3508 1.86784 19.2159 1.16075C20.081 0.453654 21.1639 0.0673828 22.2812 0.0673828C23.3986 0.0673828 24.4815 0.453654 25.3466 1.16075C26.2117 1.86784 26.8058 2.85227 27.0281 3.94724H31V5.88474H27.0281C26.8058 6.97971 26.2117 7.96414 25.3466 8.67123C24.4815 9.37832 23.3986 9.76459 22.2812 9.7646C21.1639 9.7646 20.081 9.37832 19.2159 8.67123C18.3508 7.96414 17.7567 6.97971 17.5344 5.88474H0V3.94724H17.5344ZM8.71875 11.6972C7.94796 11.6972 7.20875 12.0034 6.66372 12.5485C6.11869 13.0935 5.8125 13.8327 5.8125 14.6035C5.8125 15.3743 6.11869 16.1135 6.66372 16.6585C7.20875 17.2035 7.94796 17.5097 8.71875 17.5097C9.48954 17.5097 10.2288 17.2035 10.7738 16.6585C11.3188 16.1135 11.625 15.3743 11.625 14.6035C11.625 13.8327 11.3188 13.0935 10.7738 12.5485C10.2288 12.0034 9.48954 11.6972 8.71875 11.6972ZM3.97187 13.6347C4.19422 12.5398 4.78827 11.5553 5.65337 10.8482C6.51848 10.1412 7.60144 9.75488 8.71875 9.75488C9.83606 9.75488 10.919 10.1412 11.7841 10.8482C12.6492 11.5553 13.2433 12.5398 13.4656 13.6347H31V15.5722H13.4656C13.2433 16.6672 12.6492 17.6516 11.7841 18.3587C10.919 19.0658 9.83606 19.4521 8.71875 19.4521C7.60144 19.4521 6.51848 19.0658 5.65337 18.3587C4.78827 17.6516 4.19422 16.6672 3.97187 15.5722H0V13.6347H3.97187ZM22.2812 21.3847C21.5105 21.3847 20.7712 21.6909 20.2262 22.236C19.6812 22.781 19.375 23.5202 19.375 24.291C19.375 25.0618 19.6812 25.801 20.2262 26.346C20.7712 26.891 21.5105 27.1972 22.2812 27.1972C23.052 27.1972 23.7913 26.891 24.3363 26.346C24.8813 25.801 25.1875 25.0618 25.1875 24.291C25.1875 23.5202 24.8813 22.781 24.3363 22.236C23.7913 21.6909 23.052 21.3847 22.2812 21.3847ZM17.5344 23.3222C17.7567 22.2273 18.3508 21.2428 19.2159 20.5357C20.081 19.8287 21.1639 19.4424 22.2812 19.4424C23.3986 19.4424 24.4815 19.8287 25.3466 20.5357C26.2117 21.2428 26.8058 22.2273 27.0281 23.3222H31V25.2597H27.0281C26.8058 26.3547 26.2117 27.3391 25.3466 28.0462C24.4815 28.7533 23.3986 29.1396 22.2812 29.1396C21.1639 29.1396 20.081 28.7533 19.2159 28.0462C18.3508 27.3391 17.7567 26.3547 17.5344 25.2597H0V23.3222H17.5344Z" fill="#212121"/>
</svg>
