<svg width="32" height="26" viewBox="0 0 32 26" fill="none" xmlns="http://www.w3.org/2000/svg">
    <path d="M13.3667 0C12.5947 0 11.8544 0.306193 11.3085 0.851221C10.7626 1.39625 10.4559 2.13546 10.4559 2.90625V3.875H3.66409C2.8921 3.875 2.15173 4.18119 1.60585 4.72622C1.05997 5.27125 0.753296 6.01046 0.753296 6.78125L0.753296 22.2812C0.753296 23.052 1.05997 23.7913 1.60585 24.3363C2.15173 24.8813 2.8921 25.1875 3.66409 25.1875H28.891C29.663 25.1875 30.4033 24.8813 30.9492 24.3363C31.4951 23.7913 31.8018 23.052 31.8018 22.2812V6.78125C31.8018 6.01046 31.4951 5.27125 30.9492 4.72622C30.4033 4.18119 29.663 3.875 28.891 3.875H22.0991V2.90625C22.0991 2.13546 21.7924 1.39625 21.2466 0.851221C20.7007 0.306193 19.9603 0 19.1883 0H13.3667ZM13.3667 1.9375H19.1883C19.4457 1.9375 19.6924 2.03956 19.8744 2.22124C20.0564 2.40292 20.1586 2.64932 20.1586 2.90625V3.875H12.3965V2.90625C12.3965 2.64932 12.4987 2.40292 12.6807 2.22124C12.8626 2.03956 13.1094 1.9375 13.3667 1.9375ZM17.0266 15.3334L29.8612 11.9176V22.2812C29.8612 22.5382 29.759 22.7846 29.5771 22.9663C29.3951 23.1479 29.1483 23.25 28.891 23.25H3.66409C3.40676 23.25 3.15997 23.1479 2.97801 22.9663C2.79605 22.7846 2.69383 22.5382 2.69383 22.2812V11.9156L15.5285 15.3334C16.0193 15.4639 16.5358 15.4639 17.0266 15.3334ZM3.66409 5.8125H28.891C29.1483 5.8125 29.3951 5.91456 29.5771 6.09624C29.759 6.27792 29.8612 6.52432 29.8612 6.78125V9.91225L16.5279 13.4618C16.3638 13.5055 16.1912 13.5055 16.0272 13.4618L2.69383 9.91225V6.78125C2.69383 6.52432 2.79605 6.27792 2.97801 6.09624C3.15997 5.91456 3.40676 5.8125 3.66409 5.8125Z"/>
</svg>