<svg width="4" height="16" viewBox="0 0 4 16" fill="none" xmlns="http://www.w3.org/2000/svg">
<path d="M4 14.1538C4 14.6435 3.78929 15.1131 3.41421 15.4593C3.03914 15.8055 2.53043 16 2 16C1.46957 16 0.960859 15.8055 0.585786 15.4593C0.210713 15.1131 0 14.6435 0 14.1538C0 13.6642 0.210713 13.1946 0.585786 12.8484C0.960859 12.5022 1.46957 12.3077 2 12.3077C2.53043 12.3077 3.03914 12.5022 3.41421 12.8484C3.78929 13.1946 4 13.6642 4 14.1538ZM4 8C4 8.48963 3.78929 8.95921 3.41421 9.30543C3.03914 9.65165 2.53043 9.84615 2 9.84615C1.46957 9.84615 0.960859 9.65165 0.585786 9.30543C0.210713 8.95921 0 8.48963 0 8C0 7.51037 0.210713 7.04079 0.585786 6.69457C0.960859 6.34835 1.46957 6.15385 2 6.15385C2.53043 6.15385 3.03914 6.34835 3.41421 6.69457C3.78929 7.04079 4 7.51037 4 8ZM4 1.84615C4 2.33578 3.78929 2.80536 3.41421 3.15158C3.03914 3.4978 2.53043 3.69231 2 3.69231C1.46957 3.69231 0.960859 3.4978 0.585786 3.15158C0.210713 2.80536 0 2.33578 0 1.84615C0 1.35652 0.210713 0.886947 0.585786 0.540726C0.960859 0.194505 1.46957 0 2 0C2.53043 0 3.03914 0.194505 3.41421 0.540726C3.78929 0.886947 4 1.35652 4 1.84615Z" fill="#5C6370"/>
</svg>
